# xmcd CD database file
#
# Track frame offsets:
#	150
#	21927
#	42435
#	64200
#	84687
#
# Disc length: 1416 seconds
#
# Revision: 0
# Processed by: cddbd v1.5.1PL0 Copyright (c) Steve Scherf et al.
# Submitted via: CDex 1.51
#
DISCID=3f058605
DTITLE=大川栄策 - 港雨
DYEAR=2004
DGENRE=JPop
TTITLE0=港雨
TTITLE1=雀のお宿
TTITLE2=港雨 (オリジナル・カラオケ)
TTITLE3=雀のお宿 (オリジナル・カラオケ)
TTITLE4=港雨 (半音下げオリジナル・カラオケ)
EXTD=YEAR: 2004
EXTT0=
EXTT1=
EXTT2=
EXTT3=
EXTT4=
PLAYORDER=
